<svg xmlns="http://www.w3.org/2000/svg" viewBox="0 0 560 420" fill="none" role="img" aria-label="Dashboard de aplicación web">
  <rect width="560" height="420" rx="24" fill="#E6F4FF"/>
  <rect x="24" y="24" width="512" height="48" rx="12" fill="#FFFFFF" stroke="#0066CC" stroke-width="2"/>
  <circle cx="48" cy="48" r="8" fill="#0066CC"/>
  <rect x="68" y="40" width="120" height="16" rx="8" fill="#CBD5E1"/>
  <rect x="24" y="88" width="160" height="308" rx="12" fill="#FFFFFF" stroke="#0066CC" stroke-width="2"/>
  <rect x="40" y="108" width="128" height="12" rx="6" fill="#0066CC" opacity="0.2"/>
  <rect x="40" y="132" width="96" height="10" rx="5" fill="#94A3B8"/>
  <rect x="40" y="152" width="112" height="10" rx="5" fill="#94A3B8"/>
  <rect x="40" y="172" width="88" height="10" rx="5" fill="#94A3B8"/>
  <rect x="40" y="192" width="104" height="10" rx="5" fill="#94A3B8"/>
  <rect x="200" y="88" width="336" height="148" rx="12" fill="#FFFFFF" stroke="#0066CC" stroke-width="2"/>
  <rect x="220" y="108" width="80" height="10" rx="5" fill="#0066CC"/>
  <rect x="220" y="132" width="296" height="8" rx="4" fill="#E2E8F0"/>
  <rect x="220" y="152" width="240" height="8" rx="4" fill="#E2E8F0"/>
  <rect x="220" y="172" width="200" height="8" rx="4" fill="#E2E8F0"/>
  <rect x="220" y="196" width="120" height="28" rx="8" fill="#0066CC"/>
  <rect x="200" y="252" width="160" height="144" rx="12" fill="#FFFFFF" stroke="#0066CC" stroke-width="2"/>
  <rect x="220" y="272" width="60" height="80" rx="6" fill="#3B82F6" opacity="0.35"/>
  <rect x="290" y="292" width="50" height="60" rx="6" fill="#0066CC" opacity="0.55"/>
  <rect x="376" y="252" width="160" height="144" rx="12" fill="#FFFFFF" stroke="#0066CC" stroke-width="2"/>
  <path d="M396 360 L420 320 L440 340 L470 290 L510 360 Z" fill="#0066CC" opacity="0.25"/>
  <path d="M396 360 L420 320 L440 340 L470 290 L510 360" stroke="#0066CC" stroke-width="3" fill="none"/>
  <text x="420" y="240" font-family="monospace" font-size="14" fill="#64748B">&lt;/&gt; React · Python · APIs</text>
</svg>
